<svg width="30" height="30" viewBox="0 0 30 30" fill="none" xmlns="http://www.w3.org/2000/svg">
<path d="M14.5245 8.08156C14.6741 7.6209 15.3259 7.6209 15.4755 8.08156L16.5451 11.3734C16.7459 11.9914 17.3218 12.4098 17.9717 12.4098H21.4329C21.9172 12.4098 22.1186 13.0296 21.7268 13.3143L18.9266 15.3488C18.4009 15.7307 18.1809 16.4078 18.3817 17.0258L19.4513 20.3176C19.6009 20.7783 19.0737 21.1613 18.6818 20.8766L15.8817 18.8422C15.3559 18.4602 14.6441 18.4602 14.1183 18.8422L11.3182 20.8766C10.9263 21.1613 10.3991 20.7783 10.5487 20.3176L11.6183 17.0258C11.8191 16.4078 11.5991 15.7307 11.0734 15.3488L8.27323 13.3143C7.88137 13.0296 8.08276 12.4098 8.56712 12.4098H12.0283C12.6782 12.4098 13.2541 11.9914 13.4549 11.3734L14.5245 8.08156Z" stroke="#A7B1C2"/>
<rect x="0.5" y="0.5" width="29" height="29" rx="7.5" stroke="#A7B1C2"/>
</svg>
