<svg width="16" height="18" viewBox="0 0 16 18" fill="none" xmlns="http://www.w3.org/2000/svg">
<circle cx="8" cy="9" r="8" fill="#A6B0C3"/>
<path d="M9.125 3.82812C9.34375 3.82812 9.52865 3.90365 9.67969 4.05469C9.83073 4.20573 9.90625 4.39062 9.90625 4.60938C9.90625 4.82292 9.82812 5.00781 9.67188 5.16406C9.52083 5.3151 9.33854 5.39062 9.125 5.39062C8.91146 5.39062 8.72656 5.3151 8.57031 5.16406C8.41927 5.00781 8.34375 4.82292 8.34375 4.60938C8.34375 4.39062 8.41927 4.20573 8.57031 4.05469C8.72135 3.90365 8.90625 3.82812 9.125 3.82812ZM9.22656 6.92969L7.67969 12.4062C7.57552 12.776 7.52344 12.9974 7.52344 13.0703C7.52344 13.1536 7.54688 13.2214 7.59375 13.2734C7.64583 13.3255 7.70573 13.3516 7.77344 13.3516C7.85156 13.3516 7.94531 13.3099 8.05469 13.2266C8.35156 12.9922 8.65104 12.6589 8.95312 12.2266L9.22656 12.4062C8.8724 12.9479 8.45573 13.4036 7.97656 13.7734C7.6224 14.0495 7.28385 14.1875 6.96094 14.1875C6.7474 14.1875 6.57292 14.125 6.4375 14C6.30208 13.8698 6.23438 13.7083 6.23438 13.5156C6.23438 13.3229 6.29948 13.0026 6.42969 12.5547L7.44531 9.05469C7.61198 8.48177 7.69531 8.1224 7.69531 7.97656C7.69531 7.86198 7.65365 7.76823 7.57031 7.69531C7.49219 7.6224 7.38281 7.58594 7.24219 7.58594C7.1276 7.58594 6.89062 7.61458 6.53125 7.67188V7.36719L9.22656 6.92969Z" fill="white"/>
</svg>
